{
  "accessors": [
    {
      "bufferView": 2,
      "componentType": 5126,
      "count": 4432,
      "max": [
        1.843180537223816,
        5.553457260131836,
        1.8533332347869873
      ],
      "min": [
        -1.843180537223816,
        4.764727592468262,
        -1.8533332347869873
      ],
      "type": "VEC3"
    },
    {
      "bufferView": 2,
      "byteOffset": 53184,
      "componentType": 5126,
      "count": 4432,
      "type": "VEC3"
    },
    {
      "bufferView": 1,
      "componentType": 5126,
      "count": 4432,
      "type": "VEC2"
    },
    {
      "bufferView": 0,
      "componentType": 5125,
      "count": 17406,
      "type": "SCALAR"
    },
    {
      "bufferView": 2,
      "byteOffset": 106368,
      "componentType": 5126,
      "count": 1920,
      "max": [
        1.7670743465423584,
        5.079574108123779,
        1.7670743465423584
      ],
      "min": [
        -1.7670743465423584,
        -0.22499999403953552,
        -1.7670743465423584
      ],
      "type": "VEC3"
    },
    {
      "bufferView": 2,
      "byteOffset": 129408,
      "componentType": 5126,
      "count": 1920,
      "type": "VEC3"
    },
    {
      "bufferView": 1,
      "byteOffset": 35456,
      "componentType": 5126,
      "count": 1920,
      "type": "VEC2"
    },
    {
      "bufferView": 0,
      "byteOffset": 69624,
      "componentType": 5125,
      "count": 7284,
      "type": "SCALAR"
    }
  ],
  "asset": {
    "generator": "fab-model-conversion",
    "version": "2.0"
  },
  "bufferViews": [
    {
      "buffer": 0,
      "byteLength": 98760,
      "target": 34963
    },
    {
      "buffer": 0,
      "byteLength": 50816,
      "byteOffset": 98760,
      "byteStride": 8,
      "target": 34962
    },
    {
      "buffer": 0,
      "byteLength": 152448,
      "byteOffset": 149576,
      "byteStride": 12,
      "target": 34962
    }
  ],
  "buffers": [
    {
      "byteLength": 302024,
      "uri": "coffee.bin"
    }
  ],
  "materials": [
    {
      "doubleSided": true,
      "name": "Paint_Gloss_White_2",
      "pbrMetallicRoughness": {
        "baseColorFactor": [
          0.19270200000000004,
          0.07414910000000002,
          0.02789770000000001,
          1.0
        ],
        "metallicFactor": 0.0,
        "roughnessFactor": 0.19570709373802964
      }
    },
    {
      "doubleSided": true,
      "name": "color192192192_2",
      "pbrMetallicRoughness": {
        "baseColorFactor": [
          0.9309814245047139,
          0.5496568424377466,
          0.27565044260946336,
          1.0
        ],
        "metallicFactor": 0.0,
        "roughnessFactor": 0.3112303838413317
      }
    }
  ],
  "meshes": [
    {
      "name": "CupLid_Paint Gloss White #2_0",
      "primitives": [
        {
          "attributes": {
            "NORMAL": 1,
            "POSITION": 0,
            "TEXCOORD_0": 2
          },
          "indices": 3,
          "material": 0,
          "mode": 4
        }
      ]
    },
    {
      "name": "paper-cup_color:192:192:192 #2_0",
      "primitives": [
        {
          "attributes": {
            "NORMAL": 5,
            "POSITION": 4,
            "TEXCOORD_0": 6
          },
          "indices": 7,
          "material": 1,
          "mode": 4
        }
      ]
    }
  ],
  "nodes": [
    {
      "children": [
        1
      ],
      "matrix": [
        1.0,
        0.0,
        0.0,
        0.0,
        0.0,
        2.220446049250313e-16,
        -1.0,
        0.0,
        0.0,
        1.0,
        2.220446049250313e-16,
        0.0,
        0.0,
        0.0,
        0.0,
        1.0
      ],
      "name": "Sketchfab_model"
    },
    {
      "children": [
        2
      ],
      "matrix": [
        1.0,
        0.0,
        0.0,
        0.0,
        0.0,
        0.0,
        1.0,
        0.0,
        0.0,
        -1.0,
        0.0,
        0.0,
        0.0,
        0.0,
        0.0,
        1.0
      ],
      "name": "29d48d7bb7e74bfd931b9ba5f275f499.fbx"
    },
    {
      "children": [
        3,
        5
      ],
      "name": "RootNode"
    },
    {
      "children": [
        4
      ],
      "matrix": [
        0.6208851177254366,
        -0.2588190568498659,
        -0.7399421371961571,
        0.0,
        0.1663658185456208,
        0.9659258231413593,
        -0.1982667864477884,
        0.0,
        0.7660444406212451,
        -1.8228635560724182e-07,
        0.6427876126631957,
        0.0,
        -12.505900382995605,
        7.2131500244140625,
        14.904000282287598,
        1.0
      ],
      "name": "Camera 1"
    },
    {
      "name": "Object_4"
    },
    {
      "children": [
        6
      ],
      "name": "Default"
    },
    {
      "children": [
        7,
        12
      ],
      "matrix": [
        0.970256981712032,
        0.0,
        -0.24207699235939703,
        0.0,
        0.0,
        1.0,
        0.0,
        0.0,
        0.24207699235939703,
        0.0,
        0.970256981712032,
        0.0,
        -2.220446049250313e-16,
        0.22499999403953552,
        -8.881784197001252e-16,
        1.0
      ],
      "name": "coffee-cup #2"
    },
    {
      "children": [
        8
      ],
      "name": "CupLid"
    },
    {
      "children": [
        9
      ],
      "name": "CupLid"
    },
    {
      "children": [
        10
      ],
      "name": "CupLid"
    },
    {
      "children": [
        11
      ],
      "name": "CupLid"
    },
    {
      "mesh": 0,
      "name": "CupLid_Paint Gloss White #2_0"
    },
    {
      "children": [
        13
      ],
      "name": "paper-cup"
    },
    {
      "children": [
        14
      ],
      "name": "paper-cup"
    },
    {
      "children": [
        15
      ],
      "name": "paper-cup"
    },
    {
      "children": [
        16
      ],
      "name": "paper-cup"
    },
    {
      "mesh": 1,
      "name": "paper-cup_color:192:192:192 #2_0"
    }
  ],
  "scene": 0,
  "scenes": [
    {
      "name": "Sketchfab_Scene",
      "nodes": [
        0
      ]
    }
  ]
}
